<svg width="453" height="618" viewBox="0 0 453 618" fill="none" xmlns="http://www.w3.org/2000/svg">
<path id="Vector" d="M67.8125 71H25.8575C17.8496 71 11.335 64.4853 11.335 56.4775V14.5225C11.335 6.51465 17.8496 0 25.8575 0H67.8125C75.8203 0 82.335 6.51465 82.335 14.5225V56.4775C82.335 64.4853 75.8203 71 67.8125 71Z" fill="#254C83"/>
<path id="Vector_2" d="M248.813 71H206.857C198.85 71 192.335 64.4853 192.335 56.4775V14.5225C192.335 6.51465 198.85 0 206.857 0H248.813C256.82 0 263.335 6.51465 263.335 14.5225V56.4775C263.335 64.4853 256.82 71 248.813 71Z" fill="#A92E95"/>
<path id="Vector_3" d="M427.813 71H385.857C377.85 71 371.335 64.4853 371.335 56.4775V14.5225C371.335 6.51465 377.85 0 385.857 0H427.813C435.82 0 442.335 6.51465 442.335 14.5225V56.4775C442.335 64.4853 435.82 71 427.813 71Z" fill="#EBE39B"/>
<path id="Vector_4" d="M248.813 211H206.857C198.85 211 192.335 204.485 192.335 196.478V154.522C192.335 146.515 198.85 140 206.857 140H248.813C256.82 140 263.335 146.515 263.335 154.522V196.478C263.335 204.485 256.82 211 248.813 211Z" fill="#D7D7D7"/>
<path id="Vector_5" d="M427.813 211H385.857C377.85 211 371.335 204.485 371.335 196.478V154.522C371.335 146.515 377.85 140 385.857 140H427.813C435.82 140 442.335 146.515 442.335 154.522V196.478C442.335 204.485 435.82 211 427.813 211Z" fill="#EB9B9E"/>
<g id="Important">
<path id="Vector_6" d="M67.8125 211H25.8575C17.8496 211 11.335 204.485 11.335 196.478V154.522C11.335 146.515 17.8496 140 25.8575 140H67.8125C75.8203 140 82.335 146.515 82.335 154.522V196.478C82.335 204.485 75.8203 211 67.8125 211Z" fill="#2EA92E"/>
<path id="Vector_7" d="M74.835 164.5C84.2238 164.5 91.835 156.889 91.835 147.5C91.835 138.111 84.2238 130.5 74.835 130.5C65.4461 130.5 57.835 138.111 57.835 147.5C57.835 156.889 65.4461 164.5 74.835 164.5Z" fill="#FF2B2B"/>
</g>
<path id="Vector_8" d="M287.87 139.976C287.87 141.626 287.68 143.316 287.28 145.006L270.57 216.116C268.2 226.226 258.07 232.486 247.97 230.096L181 209.316L177.73 208.306C173.92 211.066 168.6 212.336 163.04 211.356C153.32 209.636 146.59 201.726 148.01 193.676C149.43 185.636 158.46 180.506 168.18 182.216C173.74 183.196 178.31 186.206 180.95 190.096L181 190.106L181.17 190.136L239.46 197.346L244.36 138.226C245.29 126.926 254.73 118.236 266.07 118.236C278.37 118.236 287.87 128.286 287.87 139.976Z" fill="#EB9B9E"/>
<path id="Vector_9" d="M287.87 139.976C287.87 141.626 287.68 143.316 287.28 145.006L273.57 219.116C271.2 229.226 261.07 235.486 250.97 233.096L184 214.476L187 185.476L238 192.476L244.36 138.226C245.29 126.926 254.73 118.236 266.07 118.236C278.37 118.236 287.87 128.286 287.87 139.976Z" fill="#2F2E43"/>
<path id="Vector_10" d="M0 616.476H35.54H67.13H68.4H96.21H286.66H331.98H453" stroke="#090814" stroke-width="1.5" stroke-miterlimit="10"/>
<path id="Vector_11" d="M374.847 530.486L358.671 542.411L370.596 558.587L386.772 546.662L374.847 530.486Z" fill="#EB9B9E"/>
<path id="Vector_12" d="M394.859 563.412L360.475 588.761C357.536 590.927 354.086 592.432 350.499 593.111L341.914 594.737C340.139 595.073 338.299 594.351 337.227 592.897C335.969 591.191 336.005 588.836 337.313 587.17L347.723 573.91L361.426 545.657L361.505 545.73C363.486 547.54 366.494 550.264 366.72 550.397C370.952 551.334 374.201 550.807 376.379 548.833C380.178 545.39 379.413 538.636 379.404 538.569L379.398 538.517L379.443 538.49C380.478 537.881 381.475 537.744 382.407 538.084C384.385 538.806 385.417 541.402 385.565 541.8C387.496 542.07 392.518 547.828 392.921 548.294C395.811 548.818 397.8 549.902 398.833 551.518C399.737 552.931 399.912 554.732 399.354 556.872C398.683 559.447 397.087 561.769 394.859 563.412Z" fill="#2F2E43"/>
<path id="Vector_13" d="M236.133 577.686H216.036V597.783H236.133V577.686Z" fill="#EB9B9E"/>
<path id="Vector_14" d="M232.703 616.063H189.984C186.333 616.063 182.664 615.227 179.373 613.645L171.498 609.86C169.87 609.077 168.818 607.404 168.818 605.597C168.818 603.479 170.244 601.604 172.286 601.039L188.533 596.543L216.328 581.934L216.348 582.039C216.868 584.672 217.673 588.649 217.776 588.89C220.626 592.155 223.554 593.66 226.479 593.364C231.58 592.846 234.971 586.956 235.005 586.896L235.031 586.851L235.083 586.856C236.277 586.98 237.161 587.462 237.709 588.288C238.873 590.043 238.163 592.745 238.046 593.153C239.44 594.516 240.065 602.131 240.113 602.745C242.129 604.881 243.086 606.935 242.959 608.849C242.848 610.522 241.92 612.076 240.201 613.467C238.133 615.141 235.47 616.063 232.703 616.063Z" fill="#2F2E43"/>
<path id="Vector_15" d="M318.132 263.538H221.816L206.463 583.062H240.382L262.297 437.824L350.237 554.014L382.342 524.967L318.132 437.824V263.538Z" fill="#2F2E43"/>
<g id="WomanHead">
<path id="Vector_16" d="M293.335 53.5498C293.335 53.5498 319.872 53.4925 309.959 27.9232C300.045 2.35389 281.586 13.8026 281.586 13.8026C281.586 13.8026 273.808 17.9111 275.412 27.0775" fill="#2F2E43"/>
<path id="Vector_17" d="M295.991 65.8146C295.991 46.2105 280.099 30.3182 260.495 30.3182C240.891 30.3182 224.998 46.2105 224.998 65.8146C224.998 81.7137 235.452 95.1695 249.86 99.6885L256.722 145.039L291.704 115.887C291.704 115.887 284.147 106.261 280.094 95.4073C289.673 89.0504 295.991 78.1723 295.991 65.8146Z" fill="#EB9B9E"/>
<path id="Vector_18" d="M277.549 95.8005C277.549 95.8005 282.263 77.7281 274.555 69.4182C266.865 61.1273 265.872 74.0276 265.872 74.0276L260.323 72.8213C260.323 72.8213 261.288 60.276 250.431 58.1046L257.428 43.1467C257.428 43.1467 230.641 48.3476 229.903 45.7533C224.094 25.34 279.513 7.90221 294.823 39.0453C318.633 87.4831 277.549 95.8005 277.549 95.8005Z" fill="#2F2E43"/>
</g>
<path id="Vector_19" d="M296.981 219.737L312.712 266.092L223.712 265.092L236.981 222.737L296.981 219.737Z" fill="#EB9B9E"/>
<path id="Vector_20" d="M288.944 102.083L249.476 115.803L212.164 308.429L288.944 317.803L294.543 288.434L299.88 317.803H326.476L297.802 126.251C296.519 117.678 293.505 109.455 288.944 102.083Z" fill="#6C63FF"/>
<path id="Vector_21" d="M277.878 328.414L278.565 296.752L260.079 296.351L259.392 328.013C255.943 331.215 253.666 336.19 253.544 341.831C253.33 351.7 259.777 359.845 267.945 360.022C276.113 360.199 282.908 352.342 283.122 342.473C283.244 336.832 281.185 331.763 277.878 328.414Z" fill="#EB9B9E"/>
<path id="Vector_22" d="M252.357 169.945V323.413H284.462L293.951 171.24" fill="#2F2E43"/>
<path id="Vector_23" d="M317.008 332.724C316.445 332.724 315.881 332.704 315.316 332.661C308.57 332.155 302.765 328.537 298.062 321.912C280.363 296.972 244.673 214.439 244.673 190.97C244.673 168.541 249.556 117.138 249.725 116.368L285.771 96.4101C303.064 100.47 315.101 116.306 314.394 134.065C312.666 177.455 317.115 276.365 346.219 317.354L346.459 317.692L346.172 317.991C345.571 318.614 331.786 332.724 317.008 332.724Z" fill="#2F2E43"/>
</svg>
