<svg width="826" height="507" viewBox="0 0 826 507" fill="none" xmlns="http://www.w3.org/2000/svg">
<rect width="826" height="507" fill="#1E1E1E"/>
<g clip-path="url(#clip0_0_1)">
<path d="M438.22 378.66C436.45 389.37 427.13 397.57 415.93 397.57C404.73 397.57 395.4 389.37 393.64 378.66H336.6V502.27H495.26V378.66L438.22 378.66Z" fill="#D9D9D9"/>
<path d="M355.04 501.81H339.36V504.58H355.04V501.81Z" fill="#B6B3C5"/>
<path d="M493.87 502.27H478.19V505.04H493.87V502.27Z" fill="#B6B3C5"/>
<path d="M735.01 381.89H96.85C91.97 381.89 88 377.92 88 373.04V8.85C88 3.97 91.97 0 96.85 0H735.01C739.89 0 743.86 3.97 743.86 8.85V373.05C743.86 377.93 739.89 381.9 735.01 381.9L735.01 381.89Z" fill="#2F2E41"/>
<path d="M728.63 15.68H104.14V368.05H728.63V15.68Z" fill="white"/>
<path d="M0 505.53C0 506.03 0.39999 506.44 0.91 506.44H824.94C825.44 506.44 825.85 506.04 825.85 505.53C825.85 505.02 825.45 504.62 824.94 504.62H0.91C0.41 504.62 0 505.02 0 505.53Z" fill="#2F2E43"/>
<path d="M184.095 102H167.259C163.215 102 159.927 98.6588 159.927 94.5514V77.4479C159.927 73.3405 163.215 69.9997 167.259 69.9997H184.095C188.138 69.9997 191.427 73.3405 191.427 77.4479V94.5514C191.427 98.6588 188.138 102 184.095 102Z" fill="#6C63FF"/>
<path d="M262.095 102H245.259C241.215 102 237.927 98.6588 237.927 94.5514V77.4479C237.927 73.3405 241.215 69.9997 245.259 69.9997H262.095C266.138 69.9997 269.427 73.3405 269.427 77.4479V94.5514C269.427 98.6588 266.138 102 262.095 102Z" fill="#FF6366"/>
<path d="M341.095 102H324.259C320.215 102 316.927 98.6588 316.927 94.5514V77.4479C316.927 73.3405 320.215 69.9997 324.259 69.9997H341.095C345.138 69.9997 348.427 73.3405 348.427 77.4479V94.5514C348.427 98.6588 345.138 102 341.095 102Z" fill="#63FF73"/>
<path d="M421.095 102H404.259C400.215 102 396.927 98.6588 396.927 94.5514V77.4479C396.927 73.3405 400.215 69.9997 404.259 69.9997H421.095C425.138 69.9997 428.427 73.3405 428.427 77.4479V94.5514C428.427 98.6588 425.138 102 421.095 102Z" fill="#FDED64"/>
<path d="M499.095 102H482.259C478.215 102 474.927 98.6588 474.927 94.5514V77.4479C474.927 73.3405 478.215 69.9997 482.259 69.9997H499.095C503.138 69.9997 506.427 73.3405 506.427 77.4479V94.5514C506.427 98.6588 503.138 102 499.095 102Z" fill="#D9D9D9"/>
<path d="M578.095 102H561.259C557.215 102 553.927 98.6588 553.927 94.5514V77.4479C553.927 73.3405 557.215 69.9997 561.259 69.9997H578.095C582.138 69.9997 585.427 73.3405 585.427 77.4479V94.5514C585.427 98.6588 582.138 102 578.095 102Z" fill="#D9D9D9"/>
<path d="M656.095 102H639.259C635.215 102 631.927 98.6588 631.927 94.5514V77.4479C631.927 73.3405 635.215 69.9997 639.259 69.9997H656.095C660.138 69.9997 663.427 73.3405 663.427 77.4479V94.5514C663.427 98.6588 660.138 102 656.095 102Z" fill="#D9D9D9"/>
<path d="M341.095 163H324.259C320.215 163 316.927 159.659 316.927 155.551V138.448C316.927 134.34 320.215 131 324.259 131H341.095C345.138 131 348.427 134.34 348.427 138.448V155.551C348.427 159.659 345.138 163 341.095 163Z" fill="#D9D9D9"/>
<path d="M421.095 163H404.259C400.215 163 396.927 159.659 396.927 155.551V138.448C396.927 134.34 400.215 131 404.259 131H421.095C425.138 131 428.427 134.34 428.427 138.448V155.551C428.427 159.659 425.138 163 421.095 163Z" fill="#D9D9D9"/>
<path d="M499.095 163H482.259C478.215 163 474.927 159.659 474.927 155.551V138.448C474.927 134.34 478.215 131 482.259 131H499.095C503.138 131 506.427 134.34 506.427 138.448V155.551C506.427 159.659 503.138 163 499.095 163Z" fill="#D9D9D9"/>
<path d="M578.095 163H561.259C557.215 163 553.927 159.659 553.927 155.551V138.448C553.927 134.34 557.215 131 561.259 131H578.095C582.138 131 585.427 134.34 585.427 138.448V155.551C585.427 159.659 582.138 163 578.095 163Z" fill="#D9D9D9"/>
<path d="M656.095 163H639.259C635.215 163 631.927 159.659 631.927 155.551V138.448C631.927 134.34 635.215 131 639.259 131H656.095C660.138 131 663.427 134.34 663.427 138.448V155.551C663.427 159.659 660.138 163 656.095 163Z" fill="#D9D9D9"/>
<path d="M184.095 163H167.259C163.215 163 159.927 159.659 159.927 155.551V138.448C159.927 134.34 163.215 131 167.259 131H184.095C188.138 131 191.427 134.34 191.427 138.448V155.551C191.427 159.659 188.138 163 184.095 163Z" fill="#D9D9D9"/>
<path d="M262.095 163H245.259C241.215 163 237.927 159.659 237.927 155.551V138.448C237.927 134.34 241.215 131 245.259 131H262.095C266.138 131 269.427 134.34 269.427 138.448V155.551C269.427 159.659 266.138 163 262.095 163Z" fill="#D9D9D9"/>
<path d="M184.095 224H167.259C163.215 224 159.927 220.659 159.927 216.551V199.448C159.927 195.34 163.215 192 167.259 192H184.095C188.138 192 191.427 195.34 191.427 199.448V216.551C191.427 220.659 188.138 224 184.095 224Z" fill="#D9D9D9"/>
<path d="M262.095 224H245.259C241.215 224 237.927 220.659 237.927 216.551V199.448C237.927 195.34 241.215 192 245.259 192H262.095C266.138 192 269.427 195.34 269.427 199.448V216.551C269.427 220.659 266.138 224 262.095 224Z" fill="#D9D9D9"/>
<path d="M341.095 224H324.259C320.215 224 316.927 220.659 316.927 216.551V199.448C316.927 195.34 320.215 192 324.259 192H341.095C345.138 192 348.427 195.34 348.427 199.448V216.551C348.427 220.659 345.138 224 341.095 224Z" fill="#D9D9D9"/>
<path d="M421.095 224H404.259C400.215 224 396.927 220.659 396.927 216.551V199.448C396.927 195.34 400.215 192 404.259 192H421.095C425.138 192 428.427 195.34 428.427 199.448V216.551C428.427 220.659 425.138 224 421.095 224Z" fill="#D9D9D9"/>
<path d="M499.095 224H482.259C478.215 224 474.927 220.659 474.927 216.551V199.448C474.927 195.34 478.215 192 482.259 192H499.095C503.138 192 506.427 195.34 506.427 199.448V216.551C506.427 220.659 503.138 224 499.095 224Z" fill="#D9D9D9"/>
<path d="M578.095 224H561.259C557.215 224 553.927 220.659 553.927 216.551V199.448C553.927 195.34 557.215 192 561.259 192H578.095C582.138 192 585.427 195.34 585.427 199.448V216.551C585.427 220.659 582.138 224 578.095 224Z" fill="#D9D9D9"/>
<path d="M656.095 224H639.259C635.215 224 631.927 220.659 631.927 216.551V199.448C631.927 195.34 635.215 192 639.259 192H656.095C660.138 192 663.427 195.34 663.427 199.448V216.551C663.427 220.659 660.138 224 656.095 224Z" fill="#D9D9D9"/>
</g>
<defs>
<clipPath id="clip0_0_1">
<rect width="825.85" height="506.44" fill="white"/>
</clipPath>
</defs>
</svg>
